# xmcd
#
# Track frame offsets: 
#        150
#        22643
#        35936
#        55794
#        75858
#        96259
#        118856
#        134186
#        160466
#
# Disc length: 2352 seconds
#
# Revision: 0
# Processed by: cddbd v1.5.2PL0 Copyright (c) Steve Scherf et al.
# Submitted via: ExactAudioCopy v1.0b4
#
DISCID=73092e09
DTITLE=Bryce Janey - Practice What You Preach
DYEAR=2009
DGENRE=Blues Rock
TTITLE0=Practice What You Preach
TTITLE1=If I Could
TTITLE2=Goin' Back Home
TTITLE3=Walkin' Out On Me
TTITLE4=Tampa Bay
TTITLE5=Ain't Nobody Dancin'
TTITLE6=Some For Me, More For You
TTITLE7=Movin' Home
TTITLE8=Gamblin' Man's Blues
EXTD=
EXTT0=
EXTT1=
EXTT2=
EXTT3=
EXTT4=
EXTT5=
EXTT6=
EXTT7=
EXTT8=
PLAYORDER=
